<svg width="121" height="53" viewBox="0 0 121 53" fill="none" xmlns="http://www.w3.org/2000/svg">
<g clip-path="url(#clip0_11019_11387)">
<path d="M16.5813 9.84982C18.3027 9.60178 19.9576 10.8883 20.3739 12.818C20.8317 14.9429 21.1953 17.0918 21.7299 19.1952C22.7724 23.3044 23.8219 27.4227 26.2152 30.9936C26.8708 31.9717 27.6525 32.8415 28.8928 32.7481C30.1331 32.6547 30.5338 31.5236 30.9813 30.5314C32.992 26.0758 34.2677 21.3308 36.0375 16.7834C37.7105 12.484 39.2868 8.1309 42.1544 4.46404C44.1072 1.97288 46.4341 0.0902582 49.7482 0.0307285C51.6251 -0.144553 53.2463 0.412711 54.7854 1.55948C57.349 3.47188 58.9477 6.1226 60.3426 8.91388C62.9191 14.0682 64.5498 19.6069 66.2816 25.0952C67.8285 29.9932 69.2347 34.9391 70.7928 39.8329C71.3335 41.5304 71.9226 43.2493 72.9884 44.7111C74.0776 46.1993 75.2712 46.1596 76.2602 44.5746C76.9192 43.5196 77.4046 42.3696 77.8201 41.1848C78.9308 38.0181 79.6771 34.7283 80.4389 31.4806C81.3156 27.7344 82.1378 23.9765 83.1743 20.2741C84.3628 16.0384 85.5236 11.7672 88.0975 8.12015C90.2801 5.0213 93.5269 4.27387 96.8047 6.08539C98.1928 6.8486 99.3298 7.96881 100.087 9.31901C101.376 11.5605 101.128 13.501 99.3095 14.7585C97.6062 15.9343 95.7164 15.42 94.2723 13.3803C93.4448 12.2128 92.9819 12.2418 92.4282 13.5258C92.1889 14.0744 91.9886 14.6379 91.8288 15.2125C90.0029 21.9244 88.2305 28.6521 86.3571 35.3492C85.2455 39.3178 84.0415 43.2716 82.0558 46.9021C81.5932 47.7547 81.0697 48.5757 80.489 49.3593C76.8095 54.2796 71.7999 54.1879 68.2716 49.0997C65.1484 44.5961 63.5609 39.3708 61.8801 34.2066C59.6603 27.3921 57.8283 20.4395 55.1301 13.7961C54.1342 11.3463 53.1867 8.81797 50.9928 7.13543C49.0279 6.83034 47.9387 8.14744 46.9912 9.54969C45.0392 12.4344 43.8689 15.7185 42.6389 18.9661C41.0505 23.1588 39.7368 27.4615 37.8971 31.555C36.9375 33.6915 35.8518 35.7717 34.253 37.4617C30.6384 41.2856 25.3869 40.7011 21.9018 36.0561C16.9941 29.5161 15.0136 21.7764 13.5384 13.8747C13.1428 11.7531 14.5515 10.1384 16.5813 9.84982Z" fill="url(#paint0_linear_11019_11387)"/>
</g>
<path d="M7.30234 34.0556L0 15.8984H4.3133L9.23198 29.1002L7.94555 29.138L12.7507 15.8984H15.1722L19.9774 29.138L18.691 29.1002L23.6096 15.8984H27.9229L20.6206 34.0556H18.1991L13.2804 21.4969H14.6425L9.72384 34.0556H7.30234Z" fill="#020721"/>
<path d="M38.5244 34.4343C36.7083 34.4343 35.0687 34.0308 33.6057 33.2238C32.168 32.3916 31.0203 31.2568 30.1627 29.8194C29.3303 28.3819 28.9141 26.7679 28.9141 24.9775C28.9141 23.187 29.3303 21.5856 30.1627 20.1734C30.995 18.7359 32.1175 17.6011 33.53 16.7689C34.9678 15.9367 36.5569 15.5206 38.2974 15.5206C39.9874 15.5206 41.4756 15.9115 42.762 16.6933C44.0737 17.475 45.0952 18.5468 45.8267 19.9086C46.5835 21.2704 46.9618 22.8213 46.9618 24.5613C46.9618 24.864 46.9366 25.1792 46.8861 25.507C46.8609 25.8097 46.8105 26.1501 46.7348 26.5284H31.8274V23.1239H44.5782L43.0269 24.4857C42.9764 23.3761 42.762 22.443 42.3837 21.6865C42.0053 20.9299 41.463 20.3499 40.7567 19.9464C40.0757 19.5429 39.2307 19.3412 38.2217 19.3412C37.1623 19.3412 36.2416 19.5681 35.4597 20.0221C34.6777 20.476 34.0724 21.1191 33.6436 21.9513C33.2148 22.7582 33.0003 23.7291 33.0003 24.864C33.0003 25.9988 33.2274 26.9949 33.6814 27.8523C34.1354 28.7098 34.7786 29.378 35.611 29.8572C36.4434 30.3111 37.4019 30.5381 38.4866 30.5381C39.4199 30.5381 40.2775 30.3742 41.0594 30.0463C41.8666 29.7185 42.5476 29.2393 43.1026 28.6089L45.7511 31.2946C44.8682 32.3286 43.7962 33.1103 42.535 33.6399C41.2738 34.1695 39.9369 34.4343 38.5244 34.4343Z" fill="#020721"/>
<path d="M58.7356 34.4343C56.9195 34.4343 55.2799 34.0308 53.8169 33.2238C52.3792 32.3916 51.2315 31.2568 50.3739 29.8194C49.5415 28.3819 49.1253 26.7679 49.1253 24.9775C49.1253 23.187 49.5415 21.5856 50.3739 20.1734C51.2062 18.7359 52.3287 17.6011 53.7413 16.7689C55.179 15.9367 56.7681 15.5206 58.5086 15.5206C60.1986 15.5206 61.6868 15.9115 62.9732 16.6933C64.2849 17.475 65.3064 18.5468 66.0379 19.9086C66.7947 21.2704 67.173 22.8213 67.173 24.5613C67.173 24.864 67.1478 25.1792 67.0974 25.507C67.0721 25.8097 67.0217 26.1501 66.946 26.5284H52.0386V23.1239H64.7894L63.2381 24.4857C63.1876 23.3761 62.9732 22.443 62.5949 21.6865C62.2165 20.9299 61.6742 20.3499 60.9679 19.9464C60.2869 19.5429 59.4419 19.3412 58.4329 19.3412C57.3735 19.3412 56.4528 19.5681 55.6709 20.0221C54.8889 20.476 54.2836 21.1191 53.8548 21.9513C53.426 22.7582 53.2116 23.7291 53.2116 24.864C53.2116 25.9988 53.4386 26.9949 53.8926 27.8523C54.3466 28.7098 54.9898 29.378 55.8222 29.8572C56.6546 30.3111 57.6131 30.5381 58.6978 30.5381C59.6311 30.5381 60.4887 30.3742 61.2706 30.0463C62.0778 29.7185 62.7588 29.2393 63.3138 28.6089L65.9623 31.2946C65.0794 32.3286 64.0074 33.1103 62.7462 33.6399C61.485 34.1695 60.1481 34.4343 58.7356 34.4343Z" fill="#020721"/>
<path d="M76.4496 34.4343C75.4407 34.4343 74.4696 34.3082 73.5363 34.056C72.603 33.7786 71.7454 33.4003 70.9634 32.9212C70.1815 32.4168 69.5004 31.8116 68.9203 31.1055L71.5688 28.4576C72.1994 29.1889 72.9183 29.7437 73.7254 30.122C74.5578 30.475 75.4911 30.6516 76.5253 30.6516C77.4586 30.6516 78.1649 30.5129 78.6441 30.2355C79.1234 29.9581 79.363 29.5546 79.363 29.025C79.363 28.4702 79.136 28.0415 78.682 27.7388C78.2279 27.4362 77.6352 27.184 76.9037 26.9823C76.1974 26.7553 75.4407 26.5284 74.6335 26.3014C73.8516 26.0744 73.0948 25.7718 72.3633 25.3936C71.6571 24.9901 71.0769 24.4479 70.6229 23.767C70.1689 23.0861 69.9418 22.2034 69.9418 21.1191C69.9418 19.959 70.2067 18.9629 70.7364 18.1307C71.2913 17.2985 72.0607 16.6554 73.0444 16.2015C74.0534 15.7476 75.2515 15.5206 76.6388 15.5206C78.1018 15.5206 79.3882 15.7854 80.4981 16.315C81.6332 16.8193 82.5791 17.5885 83.3358 18.6225L80.6873 21.2704C80.1576 20.6147 79.5522 20.1229 78.8711 19.7951C78.1901 19.4673 77.4081 19.3033 76.5253 19.3033C75.6929 19.3033 75.0497 19.4294 74.5957 19.6816C74.1416 19.9338 73.9146 20.2995 73.9146 20.7786C73.9146 21.283 74.1416 21.6739 74.5957 21.9513C75.0497 22.2287 75.6299 22.4682 76.3361 22.67C77.0676 22.8717 77.8243 23.0987 78.6063 23.3509C79.4134 23.5778 80.1702 23.9057 80.8764 24.3344C81.6079 24.7379 82.2007 25.2927 82.6547 25.9988C83.1088 26.6797 83.3358 27.5749 83.3358 28.6845C83.3358 30.4498 82.7178 31.8494 81.4818 32.8834C80.2458 33.9173 78.5685 34.4343 76.4496 34.4343Z" fill="#020721"/>
<path d="M99.714 34.056V23.5778C99.714 22.3674 99.3231 21.3712 98.5411 20.5895C97.7844 19.8077 96.8007 19.4168 95.5899 19.4168C94.7827 19.4168 94.0639 19.5934 93.4333 19.9464C92.8027 20.2995 92.3108 20.7912 91.9577 21.4217C91.6045 22.0521 91.428 22.7709 91.428 23.5778L89.801 22.67C89.801 21.283 90.1037 20.0599 90.7091 19.0007C91.3144 17.9163 92.1468 17.0715 93.2062 16.4663C94.2909 15.8358 95.5016 15.5206 96.8385 15.5206C98.2006 15.5206 99.4113 15.8232 100.471 16.4285C101.53 17.0337 102.363 17.8785 102.968 18.9629C103.573 20.0221 103.876 21.2578 103.876 22.67V34.056H99.714ZM87.266 34.056V6.82031H91.428V34.056H87.266Z" fill="#020721"/>
<path d="M107.606 34.056V15.8989H111.768V34.056H107.606ZM111.768 23.9561L110.331 23.2374C110.331 20.9425 110.835 19.089 111.844 17.6768C112.878 16.2393 114.429 15.5206 116.498 15.5206C117.406 15.5206 118.226 15.6845 118.957 16.0124C119.689 16.3402 120.37 16.8698 121 17.6011L118.276 20.4003C117.948 20.0473 117.582 19.7951 117.179 19.6438C116.775 19.4925 116.309 19.4168 115.779 19.4168C114.619 19.4168 113.66 19.7825 112.903 20.5138C112.147 21.2452 111.768 22.3926 111.768 23.9561Z" fill="#020721"/>
<mask id="mask0_11019_11387" style="mask-type:alpha" maskUnits="userSpaceOnUse" x="68" y="15" width="16" height="20">
<path d="M76.4192 34.5912C75.3947 34.5912 74.4087 34.4632 73.4611 34.2072C72.5136 33.9255 71.6428 33.5414 70.8489 33.055C70.0549 32.5429 69.3635 31.9283 68.7744 31.2114L71.4635 28.5229C72.1038 29.2655 72.8337 29.8288 73.6532 30.2128C74.4984 30.5713 75.446 30.7505 76.496 30.7505C77.4436 30.7505 78.1607 30.6097 78.6473 30.328C79.1339 30.0464 79.3772 29.6367 79.3772 29.099C79.3772 28.5357 79.1467 28.1004 78.6857 27.7932C78.2247 27.4859 77.6228 27.2299 76.8801 27.025C76.163 26.7946 75.3947 26.5642 74.5752 26.3337C73.7813 26.1033 73.013 25.796 72.2702 25.4119C71.5532 25.0023 70.9641 24.4518 70.5031 23.7604C70.0421 23.0691 69.8116 22.1729 69.8116 21.0719C69.8116 19.8941 70.0805 18.8827 70.6184 18.0378C71.1818 17.1928 71.9629 16.5399 72.9617 16.079C73.9862 15.6181 75.2027 15.3877 76.6112 15.3877C78.0966 15.3877 79.4028 15.6565 80.5296 16.1942C81.6821 16.7063 82.6425 17.4873 83.4108 18.5371L80.7217 21.2256C80.1839 20.5598 79.5692 20.0606 78.8778 19.7277C78.1863 19.3948 77.3924 19.2284 76.496 19.2284C75.6508 19.2284 74.9978 19.3564 74.5368 19.6125C74.0758 19.8685 73.8453 20.2398 73.8453 20.7263C73.8453 21.2384 74.0758 21.6352 74.5368 21.9169C74.9978 22.1985 75.5868 22.4418 76.3039 22.6466C77.0466 22.8515 77.8149 23.0819 78.6089 23.338C79.4284 23.5684 80.1967 23.9013 80.9138 24.3365C81.6565 24.7462 82.2584 25.3095 82.7193 26.0265C83.1803 26.7178 83.4108 27.6267 83.4108 28.7534C83.4108 30.5457 82.7834 31.9667 81.5285 33.0165C80.2735 34.0663 78.5704 34.5912 76.4192 34.5912Z" fill="black"/>
</mask>
<g mask="url(#mask0_11019_11387)">
<path d="M15.6338 9.62969C17.3816 9.37785 19.0618 10.6841 19.4845 12.6434C19.9493 14.8008 20.3185 16.9826 20.8614 19.1182C21.9199 23.2904 22.9854 27.4718 25.4154 31.0975C26.081 32.0906 26.8747 32.9737 28.134 32.8789C29.3933 32.784 29.8002 31.6356 30.2545 30.6283C32.296 26.1043 33.5913 21.2866 35.3882 16.6695C37.0869 12.3042 38.6873 7.88443 41.5988 4.16137C43.5816 1.63204 45.9442 -0.279437 49.309 -0.339879C51.2147 -0.517847 52.8607 0.047957 54.4235 1.2123C57.0263 3.154 58.6495 5.84535 60.0658 8.67941C62.6818 13.9127 64.3375 19.5363 66.0958 25.1087C67.6664 30.0818 69.0941 35.1035 70.6762 40.0723C71.2251 41.7957 71.8232 43.541 72.9054 45.0252C74.0112 46.5362 75.2232 46.496 76.2273 44.8867C76.8964 43.8155 77.3893 42.6478 77.8111 41.4449C78.9389 38.2297 79.6966 34.8894 80.47 31.592C81.3602 27.7883 82.195 23.9729 83.2474 20.2138C84.4541 15.9131 85.6327 11.5764 88.246 7.87352C90.4621 4.72717 93.7586 3.96829 97.0867 5.80757C98.4961 6.58248 99.6505 7.71985 100.419 9.09075C101.728 11.3666 101.477 13.3368 99.6298 14.6136C97.9005 15.8074 95.9817 15.2852 94.5154 13.2142C93.6753 12.0289 93.2052 12.0583 92.6431 13.362C92.4001 13.919 92.1967 14.4912 92.0345 15.0745C90.1806 21.8893 88.3811 28.7201 86.479 35.5199C85.3503 39.5493 84.1278 43.5637 82.1117 47.2498C81.642 48.1155 81.1105 48.9491 80.5209 49.7447C76.7851 54.7404 71.6987 54.6472 68.1163 49.4811C64.9452 44.9085 63.3334 39.603 61.6268 34.3597C59.373 27.4408 57.513 20.3817 54.7734 13.6365C53.7622 11.1491 52.8002 8.58203 50.5727 6.8737C48.5777 6.56394 47.4718 7.90122 46.5098 9.32496C44.5279 12.2539 43.3396 15.5883 42.0908 18.8857C40.4781 23.1427 39.1442 27.5113 37.2763 31.6675C36.302 33.8367 35.1996 35.9488 33.5764 37.6647C29.9063 41.5473 24.5744 40.9538 21.0359 36.2376C16.053 29.5974 14.0421 21.7391 12.5443 13.7162C12.1426 11.5622 13.573 9.92267 15.6338 9.62969Z" fill="url(#paint1_linear_11019_11387)"/>
</g>
<path d="M102.775 15.3476C100.9 15.3046 99.4753 16.7187 99.4601 18.6376C99.4457 20.474 100.808 21.8807 102.642 21.923C104.389 21.9624 105.955 20.4518 105.987 18.6969C106.019 16.9288 104.542 15.3885 102.775 15.3476Z" fill="#BAEF23"/>
<mask id="mask1_11019_11387" style="mask-type:alpha" maskUnits="userSpaceOnUse" x="33" y="15" width="13" height="8">
<path d="M44.2833 17.8827C40.4911 14.2562 35.6899 15.5122 33.7633 16.5935C33.3891 18.9917 32.7987 23.4803 33.4307 22.2494C34.2207 20.7106 35.7176 19.2967 38.3372 19.2967C40.4329 19.2967 41.7607 20.6552 42.1627 21.3344L42.4121 21.6671C44.6159 21.9167 48.0754 21.5091 44.2833 17.8827Z" fill="#D9D9D9" stroke="black" stroke-width="0.011985"/>
</mask>
<g mask="url(#mask1_11019_11387)">
<path d="M16.5813 9.8508C18.3027 9.60276 19.9576 10.8893 20.3739 12.819C20.8316 14.9439 21.1953 17.0928 21.7299 19.1961C22.7724 23.3053 23.8219 27.4236 26.2152 30.9946C26.8708 31.9727 27.6525 32.8425 28.8928 32.7491C30.1331 32.6556 30.5338 31.5246 30.9813 30.5324C32.992 26.0768 34.2677 21.3318 36.0375 16.7844C37.7105 12.485 39.2868 8.13188 42.1544 4.46501C44.1072 1.97386 46.4341 0.0912348 49.7482 0.0317051C51.6251 -0.143577 53.2463 0.413687 54.7854 1.56046C57.349 3.47285 58.9477 6.12358 60.3426 8.91486C62.9191 14.0691 64.5498 19.6079 66.2816 25.0962C67.8285 29.9942 69.2347 34.9401 70.7928 39.8339C71.3335 41.5313 71.9226 43.2503 72.9884 44.7121C74.0776 46.2003 75.2712 46.1606 76.2602 44.5756C76.9192 43.5206 77.4046 42.3706 77.8201 41.1857C78.9308 38.0191 79.6771 34.7293 80.4389 31.4816C81.3156 27.7353 82.1378 23.9775 83.1743 20.2751C84.3628 16.0394 85.5236 11.7682 88.0975 8.12113C90.2801 5.02228 93.5269 4.27485 96.8047 6.08637C98.1928 6.84958 99.3298 7.96978 100.087 9.31999C101.376 11.5615 101.128 13.502 99.3095 14.7595C97.6062 15.9352 95.7164 15.421 94.2722 13.3812C93.4448 12.2138 92.9818 12.2427 92.4282 13.5268C92.1888 14.0754 91.9886 14.6389 91.8288 15.2134C90.0029 21.9254 88.2305 28.6531 86.3571 35.3502C85.2455 39.3188 84.0415 43.2726 82.0558 46.9031C81.5932 47.7557 81.0696 48.5767 80.489 49.3603C76.8095 54.2806 71.7999 54.1888 68.2716 49.1007C65.1484 44.5971 63.5609 39.3717 61.8801 34.2075C59.6603 27.393 57.8283 20.4405 55.1301 13.7971C54.1342 11.3473 53.1867 8.81895 50.9928 7.13641C49.0279 6.83132 47.9387 8.14841 46.9912 9.55067C45.0392 12.4354 43.8689 15.7194 42.6389 18.9671C41.0505 23.1598 39.7368 27.4625 37.8971 31.556C36.9375 33.6924 35.8518 35.7727 34.253 37.4627C30.6384 41.2866 25.3869 40.7021 21.9018 36.0571C16.9941 29.5171 15.0136 21.7774 13.5384 13.8757C13.1428 11.7541 14.5515 10.1394 16.5813 9.8508Z" fill="url(#paint2_linear_11019_11387)"/>
</g>
<defs>
<linearGradient id="paint0_linear_11019_11387" x1="13.4717" y1="26.4914" x2="100.895" y2="26.4914" gradientUnits="userSpaceOnUse">
<stop stop-color="#0CC990"/>
<stop offset="0.359375" stop-color="#6A70FF"/>
<stop offset="0.661458" stop-color="#41C7D9"/>
<stop offset="1" stop-color="#AEE219"/>
</linearGradient>
<linearGradient id="paint1_linear_11019_11387" x1="12.4766" y1="26.5263" x2="101.24" y2="26.5263" gradientUnits="userSpaceOnUse">
<stop stop-color="#0CC990"/>
<stop offset="0.359375" stop-color="#6A70FF"/>
<stop offset="0.661458" stop-color="#41C7D9"/>
<stop offset="1" stop-color="#AEE219"/>
</linearGradient>
<linearGradient id="paint2_linear_11019_11387" x1="13.4717" y1="26.4924" x2="100.895" y2="26.4924" gradientUnits="userSpaceOnUse">
<stop stop-color="#0CC990"/>
<stop offset="0.359375" stop-color="#6A70FF"/>
<stop offset="0.661458" stop-color="#41C7D9"/>
<stop offset="1" stop-color="#AEE219"/>
</linearGradient>
<clipPath id="clip0_11019_11387">
<rect width="93.5567" height="52.9823" fill="white" transform="translate(13.4717)"/>
</clipPath>
</defs>
</svg>
